<svg width="64" height="64" viewBox="0 0 64 64" fill="none" xmlns="http://www.w3.org/2000/svg">
<circle cx="34" cy="34" r="30" fill="#1A171D"/>
<circle cx="30" cy="30" r="28" fill="#814DE5" stroke="#1A171D" stroke-width="4"/>
<g clip-path="url(#clip0_394_10)">
<path d="M38.7932 21.4434L38.7713 21.4305L38.7205 21.415C38.7409 21.4323 38.7665 21.4423 38.7932 21.4434Z" fill="#0D0C22"/>
<path d="M39.1152 23.7295L39.0886 23.737L39.1152 23.7295Z" fill="#0D0C22"/>
<path d="M38.8033 21.4408C38.7999 21.4404 38.7966 21.4396 38.7934 21.4385C38.7932 21.4407 38.7932 21.4429 38.7934 21.4451C38.797 21.4446 38.8004 21.4431 38.8033 21.4408Z" fill="#0D0C22"/>
<path d="M38.7932 21.4446H38.7968V21.4424L38.7932 21.4446Z" fill="#0D0C22"/>
<path d="M39.0935 23.7258L39.1305 23.7047L39.1443 23.6969L39.1568 23.6836C39.1333 23.6937 39.1119 23.708 39.0935 23.7258Z" fill="#0D0C22"/>
<path d="M38.8573 21.4941L38.8212 21.4596L38.7966 21.4463C38.8098 21.4696 38.8316 21.4867 38.8573 21.4941Z" fill="#0D0C22"/>
<path d="M29.7589 43.6777C29.73 43.6902 29.7047 43.7098 29.6853 43.7345L29.7081 43.72C29.7236 43.7058 29.7456 43.689 29.7589 43.6777Z" fill="#0D0C22"/>
<path d="M35.0422 42.6381C35.0422 42.6056 35.0263 42.6116 35.0301 42.7277C35.0301 42.7184 35.034 42.7089 35.0357 42.6999C35.0379 42.6792 35.0396 42.6589 35.0422 42.6381Z" fill="#0D0C22"/>
<path d="M34.4943 43.6777C34.4654 43.6902 34.4401 43.7098 34.4207 43.7345L34.4435 43.72C34.459 43.7058 34.4809 43.689 34.4943 43.6777Z" fill="#0D0C22"/>
<path d="M26.0382 43.925C26.0162 43.9059 25.9894 43.8934 25.9607 43.8887C25.9839 43.8999 26.0072 43.9112 26.0227 43.9197L26.0382 43.925Z" fill="#0D0C22"/>
<path d="M25.201 43.1227C25.1976 43.0889 25.1871 43.0561 25.1704 43.0264C25.1823 43.0571 25.1922 43.0889 25.2001 43.1209L25.201 43.1227Z" fill="#0D0C22"/>
<path d="M30.8248 28.7824C29.6753 29.2744 28.3709 29.8323 26.6803 29.8323C25.9731 29.8309 25.2693 29.7339 24.5881 29.5439L25.7574 41.5484C25.7988 42.0501 26.0273 42.5179 26.3977 42.859C26.7681 43.2 27.2531 43.3891 27.7566 43.3891C27.7566 43.3891 29.4144 43.4752 29.9676 43.4752C30.563 43.4752 32.3483 43.3891 32.3483 43.3891C32.8517 43.3891 33.3366 43.1997 33.7069 42.8587C34.0772 42.5177 34.3057 42.0501 34.3471 41.5484L35.5994 28.283C35.0398 28.0918 34.4749 27.9648 33.8382 27.9648C32.737 27.9644 31.8498 28.3437 30.8248 28.7824Z" fill="white"/>
<path d="M20.9688 23.6611L20.989 23.6801L21.0022 23.688C20.992 23.6779 20.9808 23.6689 20.9688 23.6611Z" fill="#0D0C22"/>
<path d="M41.0064 22.5529L40.8303 21.6648C40.6723 20.8679 40.3137 20.115 39.4958 19.827C39.2336 19.7349 38.9361 19.6953 38.7351 19.5046C38.534 19.3139 38.4746 19.0177 38.4281 18.743C38.342 18.2389 38.2611 17.7343 38.1728 17.2311C38.0966 16.7984 38.0364 16.3124 37.8379 15.9155C37.5796 15.3825 37.0436 15.0709 36.5107 14.8647C36.2376 14.7627 35.9589 14.6765 35.676 14.6064C34.3444 14.2551 32.9444 14.1259 31.5746 14.0523C29.9304 13.9616 28.2818 13.9889 26.6415 14.1341C25.4206 14.2452 24.1347 14.3795 22.9746 14.8018C22.5505 14.9563 22.1136 15.1419 21.7911 15.4695C21.3955 15.872 21.2663 16.4945 21.5552 16.9965C21.7606 17.3529 22.1084 17.6048 22.4773 17.7714C22.9579 17.986 23.4598 18.1494 23.9746 18.2587C25.4082 18.5755 26.8929 18.6999 28.3575 18.7529C29.9808 18.8184 31.6066 18.7653 33.2221 18.594C33.6216 18.5501 34.0204 18.4975 34.4185 18.4361C34.8873 18.3642 35.1882 17.7511 35.05 17.3241C34.8847 16.8135 34.4404 16.6155 33.938 16.6926C33.864 16.7042 33.7904 16.7149 33.7163 16.7257L33.663 16.7334C33.4927 16.755 33.3226 16.775 33.1524 16.7937C32.8008 16.8316 32.4484 16.8626 32.0951 16.8867C31.3038 16.9418 30.5104 16.9672 29.7174 16.9685C28.9382 16.9685 28.1586 16.9465 27.3811 16.8953C27.0264 16.8721 26.6725 16.8425 26.3195 16.8066C26.1589 16.7898 25.9988 16.7722 25.8387 16.7524L25.6862 16.733L25.6531 16.7283L25.4951 16.7055C25.1722 16.6568 24.8494 16.6009 24.5299 16.5333C24.4977 16.5261 24.4689 16.5082 24.4482 16.4824C24.4275 16.4567 24.4163 16.4246 24.4163 16.3916C24.4163 16.3586 24.4275 16.3266 24.4482 16.3008C24.4689 16.2751 24.4977 16.2571 24.5299 16.25H24.536C24.8128 16.191 25.0917 16.1406 25.3716 16.0967C25.4648 16.0821 25.5584 16.0677 25.6522 16.0537H25.6548C25.83 16.0421 26.0061 16.0106 26.1805 15.99C27.6974 15.8322 29.2233 15.7784 30.7476 15.829C31.4876 15.8505 32.2272 15.894 32.9638 15.9689C33.1222 15.9852 33.2798 16.0025 33.4374 16.0218C33.4976 16.0291 33.5583 16.0378 33.619 16.0451L33.7413 16.0627C34.0977 16.1158 34.4523 16.1803 34.805 16.256C35.3277 16.3697 35.9988 16.4067 36.2313 16.9793C36.3053 17.1609 36.3389 17.3628 36.3798 17.5535L36.4319 17.7968C36.4333 17.8011 36.4343 17.8056 36.4349 17.8101C36.558 18.3841 36.6813 18.9581 36.8047 19.5321C36.8138 19.5745 36.814 19.6183 36.8053 19.6608C36.7967 19.7033 36.7794 19.7435 36.7545 19.7791C36.7296 19.8146 36.6977 19.8446 36.6607 19.8672C36.6237 19.8898 36.5825 19.9045 36.5395 19.9105H36.5361L36.4607 19.9209L36.3863 19.9307C36.1503 19.9615 35.9142 19.9902 35.6777 20.0169C35.2119 20.0699 34.7453 20.1159 34.2781 20.1546C33.3497 20.2318 32.4194 20.2825 31.4872 20.3066C31.0122 20.3192 30.5374 20.3251 30.0627 20.3242C28.1732 20.3227 26.2854 20.2129 24.4085 19.9953C24.2053 19.9712 24.0022 19.9454 23.7989 19.9191C23.9565 19.9394 23.6844 19.9036 23.6293 19.8959C23.5002 19.8778 23.371 19.859 23.2419 19.8395C22.8084 19.7745 22.3775 19.6944 21.9448 19.6242C21.4218 19.5381 20.9215 19.5812 20.4484 19.8395C20.06 20.052 19.7457 20.3779 19.5474 20.7737C19.3433 21.1955 19.2826 21.6549 19.1913 22.1082C19.1001 22.5615 18.958 23.0493 19.0118 23.5146C19.1276 24.519 19.8298 25.3352 20.8397 25.5177C21.7898 25.6899 22.7451 25.8294 23.7029 25.9482C27.4656 26.4091 31.2669 26.4642 35.0414 26.1127C35.3488 26.084 35.6557 26.0527 35.9622 26.0188C36.058 26.0083 36.1548 26.0193 36.2458 26.0511C36.3367 26.0829 36.4194 26.1346 36.4877 26.2025C36.5561 26.2703 36.6084 26.3526 36.6408 26.4433C36.6732 26.534 36.685 26.6308 36.6751 26.7266L36.5796 27.6556C36.387 29.5328 36.1944 31.41 36.0018 33.2869C35.8009 35.258 35.5987 37.229 35.3953 39.1997C35.3379 39.7549 35.2805 40.3098 35.2231 40.8645C35.168 41.4109 35.1602 41.9744 35.0565 42.5143C34.8929 43.3632 34.3182 43.8846 33.4796 44.0752C32.7113 44.2501 31.9264 44.342 31.1385 44.349C30.265 44.3537 29.392 44.3149 28.5185 44.3197C27.586 44.3249 26.4439 44.2389 25.7242 43.5448C25.0917 42.9354 25.0043 41.9809 24.9182 41.1555C24.8035 40.0629 24.6897 38.9705 24.5769 37.8782L23.944 31.8043L23.5346 27.8743C23.5277 27.8093 23.5209 27.7451 23.5144 27.6797C23.4653 27.2109 23.1334 26.752 22.6103 26.7757C22.1626 26.7954 21.6538 27.176 21.7063 27.6797L22.0098 30.5933L22.6375 36.6203C22.8163 38.3322 22.9946 40.0443 23.1726 41.7569C23.207 42.0849 23.2393 42.4139 23.2755 42.742C23.4722 44.5346 24.8412 45.5006 26.5365 45.7726C27.5266 45.9319 28.5409 45.9647 29.5457 45.981C30.8337 46.0018 32.1347 46.0513 33.4016 45.8179C35.279 45.4733 36.6876 44.2199 36.8886 42.2753C36.9461 41.7139 37.0035 41.1525 37.0609 40.5908C37.2517 38.7333 37.4423 36.8757 37.6326 35.0179L38.2551 28.948L38.5405 26.1661C38.5547 26.0281 38.6129 25.8984 38.7066 25.7962C38.8003 25.6939 38.9244 25.6245 39.0605 25.5982C39.5973 25.4936 40.1105 25.315 40.4924 24.9064C41.1002 24.256 41.2212 23.4079 41.0064 22.5529ZM20.8122 23.153C20.8203 23.1491 20.8053 23.2193 20.7988 23.252C20.7975 23.2025 20.8001 23.1586 20.8122 23.153ZM20.8643 23.556C20.8686 23.5529 20.8815 23.5702 20.8948 23.5908C20.8746 23.5719 20.8617 23.5577 20.8638 23.556H20.8643ZM20.9155 23.6235C20.934 23.655 20.9439 23.6748 20.9155 23.6235V23.6235ZM21.0184 23.7071H21.021C21.021 23.7101 21.0257 23.7131 21.0274 23.7161C21.0246 23.7128 21.0214 23.7098 21.0179 23.7071H21.0184ZM39.0356 23.5822C38.8427 23.7656 38.5521 23.8508 38.2649 23.8935C35.0448 24.3713 31.7778 24.6133 28.5224 24.5065C26.1925 24.4269 23.8872 24.1681 21.5806 23.8422C21.3546 23.8104 21.1096 23.7691 20.9542 23.6025C20.6615 23.2882 20.8053 22.6554 20.8815 22.2757C20.9512 21.9278 21.0847 21.4642 21.4984 21.4147C22.1441 21.3389 22.894 21.6114 23.5329 21.7083C24.3021 21.8256 25.0741 21.9196 25.849 21.9902C29.1561 22.2916 32.5187 22.2447 35.8111 21.8038C36.4112 21.7232 37.0092 21.6295 37.605 21.5227C38.1358 21.4276 38.7243 21.2489 39.045 21.7987C39.265 22.1732 39.2943 22.6743 39.2603 23.0975C39.2498 23.2819 39.1692 23.4553 39.0351 23.5822H39.0356Z" fill="#0D0C22"/>
</g>
<defs>
<clipPath id="clip0_394_10">
<rect width="22.1173" height="32" fill="white" transform="translate(19 14)"/>
</clipPath>
</defs>
</svg>
