<svg width="36" height="36" viewBox="0 0 36 36" fill="none" xmlns="http://www.w3.org/2000/svg">
<path d="M10.6192 7.38077C9.72495 6.4865 8.27505 6.4865 7.38077 7.38077C6.4865 8.27505 6.4865 9.72495 7.38077 10.6192L10.6192 7.38077ZM25.7002 28.9387C26.5945 29.8329 28.0444 29.8329 28.9387 28.9387C29.8329 28.0444 29.8329 26.5945 28.9387 25.7002L25.7002 28.9387ZM28.9387 10.6192C29.8329 9.72495 29.8329 8.27505 28.9387 7.38077C28.0444 6.4865 26.5945 6.4865 25.7002 7.38077L28.9387 10.6192ZM7.38077 25.7002C6.4865 26.5945 6.4865 28.0444 7.38077 28.9387C8.27505 29.8329 9.72495 29.8329 10.6192 28.9387L7.38077 25.7002ZM7.38077 10.6192L25.7002 28.9387L28.9387 25.7002L10.6192 7.38077L7.38077 10.6192ZM25.7002 7.38077L7.38077 25.7002L10.6192 28.9387L28.9387 10.6192L25.7002 7.38077Z" fill="#1A171D"/>
</svg>
