<svg width="56" height="56" viewBox="0 0 56 56" fill="none" xmlns="http://www.w3.org/2000/svg">
<path d="M35.3798 28.5189L14.8783 2.00651C13.9374 0.80254 12.5508 0.12531 11.0652 0.100227L2.89425 -0.000104766C2.44857 -0.000104766 2.07716 0.300889 1.97812 0.727295L0.121096 8.77884C-0.200788 10.2587 0.121096 11.7888 1.06199 12.9677L15.5963 31.7797C15.8439 32.0807 16.2896 32.1283 16.5867 31.9051L22.7025 27.039C23.0987 26.713 23.6434 26.5374 24.2129 26.6126C25.4262 26.7631 26.2433 27.8668 26.1195 29.0457C26.0452 29.6476 25.7481 30.1493 25.3519 30.5255C25.2281 30.6259 19.4094 35.2913 19.4094 35.2913C19.038 35.5922 18.9637 36.1441 19.2608 36.5178L21.5636 39.5051C23.6929 42.2392 27.407 42.49 30.403 40.1071L33.8447 37.3731C35.256 36.2695 36.1969 34.8147 36.5188 33.2846C36.8902 31.6016 36.494 29.9486 35.3798 28.5189" fill="#1A171D"/>
</svg>
