<svg width="296" height="31" viewBox="0 0 296 31" fill="none" xmlns="http://www.w3.org/2000/svg">
<path d="M6.412 24V15.16C6.412 12.95 7.092 12.236 9.914 12.236C12.702 12.236 13.586 12.984 13.586 15.364V24H19.978V13.018C19.978 9.312 17.802 6.524 13.178 6.524C8.588 6.524 6.718 9.21 6.344 12.066H6.004V6.864H0.02V24H6.412ZM31.3537 24.34C37.3037 24.34 41.3497 20.974 41.3497 15.432C41.3497 9.856 37.3037 6.524 31.3537 6.524C25.4037 6.524 21.3577 9.856 21.3577 15.432C21.3577 20.974 25.4037 24.34 31.3537 24.34ZM31.3537 18.696C28.4637 18.696 27.6817 17.914 27.6817 15.432C27.6817 12.95 28.4637 12.134 31.3537 12.134C34.2437 12.134 35.0257 12.95 35.0257 15.432C35.0257 17.914 34.2437 18.696 31.3537 18.696ZM49.2772 24V15.16C49.2772 12.95 49.9572 12.236 52.7792 12.236C55.5672 12.236 56.4512 12.984 56.4512 15.364V24H62.8432V13.018C62.8432 9.312 60.6672 6.524 56.0432 6.524C51.4532 6.524 49.5832 9.21 49.2092 12.066H48.8692V6.864H42.8852V24H49.2772ZM72.5869 24V12.1H77.1429V6.864H72.1789C72.1449 5.946 72.9949 5.776 74.7629 5.776H77.1429V1.22H75.7829C70.1729 1.22 67.0109 3.634 66.3309 6.864H63.8829V12.1H66.1949V24H72.5869ZM85.5502 24.34C90.2082 24.34 92.1122 21.654 92.4862 18.798H92.8262V24H98.8102V6.864H92.4182V15.704C92.4182 17.914 91.7042 18.628 88.7462 18.628C85.8222 18.628 84.9042 17.88 84.9042 15.5V6.864H78.5122V17.846C78.5122 21.552 80.7562 24.34 85.5502 24.34ZM107.117 24V15.16C107.117 12.95 107.797 12.236 110.619 12.236C113.407 12.236 114.291 12.984 114.291 15.364V24H120.683V13.018C120.683 9.312 118.507 6.524 113.883 6.524C109.293 6.524 107.423 9.21 107.049 12.066H106.709V6.864H100.725V24H107.117ZM130.189 22.096C133.963 22.096 135.765 20.43 136.207 17.948H136.547V21.552C136.547 24.442 135.901 24.85 133.147 24.85C129.815 24.85 129.645 24.51 129.645 23.116H123.253C123.253 27.604 126.721 30.12 132.705 30.12C139.301 30.12 142.939 27.23 142.939 21.11V6.864H136.955V10.876H136.615C136.139 7.918 133.827 6.524 130.359 6.524C125.293 6.524 122.233 9.448 122.233 14.276C122.233 19.172 125.089 22.096 130.189 22.096ZM128.693 14.276C128.693 12.61 129.509 12.032 132.501 12.032C135.357 12.032 136.547 12.406 136.547 14.242V14.48C136.547 16.282 135.357 16.622 132.501 16.622C129.509 16.622 128.693 15.976 128.693 14.276ZM151.377 5.3V1.22H144.985V5.3H151.377ZM151.377 24V6.864H144.985V24H151.377ZM159.402 24V19.376H159.742C160.286 22.776 162.326 24.34 166.338 24.34C171.574 24.34 174.464 20.974 174.464 15.432C174.464 9.856 171.642 6.524 166.61 6.524C162.564 6.524 160.66 8.428 160.15 11.284H159.81V1.22H153.418V24H159.402ZM159.81 15.466V15.228C159.81 12.814 161.17 12.338 164.026 12.338C166.984 12.338 168.004 13.154 168.004 15.432C168.004 17.71 166.984 18.492 164.026 18.492C161.17 18.492 159.81 17.948 159.81 15.466ZM182.555 24V1.22H176.163V24H182.555ZM194.15 24.34C199.93 24.34 203.568 21.654 203.568 17.846V17.438H197.176V17.812C197.176 18.832 196.496 19.274 193.912 19.274C191.192 19.274 190.274 18.696 190.172 16.622H203.602C203.67 16.01 203.704 15.568 203.704 14.99C203.704 9.482 199.93 6.524 194.014 6.524C188.302 6.524 184.256 9.856 184.256 15.432C184.256 21.858 188.336 24.34 194.15 24.34ZM193.878 11.42C196.258 11.42 197.278 11.93 197.516 13.392H190.274C190.546 11.93 191.532 11.42 193.878 11.42ZM211.332 30H209.332V28V26V24V22V20V18V16V14V12V10V8V6H211.332H213.332V8V10H215.332H217.332V12V14H215.332H213.332V16V18H215.332H217.332H219.332H221.332H223.332V20V22H221.332H219.332H217.332H215.332H213.332V24V26V28V30H211.332ZM223.332 18V16V14V12V10H225.332H227.332V12V14V16V18H225.332H223.332ZM223.332 10H221.332H219.332H217.332V8V6H219.332H221.332H223.332V8V10ZM231.332 24H229.332V22V20V18V16V14V12V10V8V6H231.332H233.332V8V10V12V14V16V18V20V22V24H231.332ZM231.332 4H229.332V2V0H231.332H233.332V2V4H231.332ZM253.332 24H251.332V22V20H253.332H255.332V22V24H253.332ZM237.332 24H235.332V22V20H237.332H239.332V22V24H237.332ZM251.332 20H249.332H247.332V18V16H249.332H251.332V18V20ZM239.332 20V18V16H241.332H243.332V18V20H241.332H239.332ZM247.332 16H245.332H243.332V14V12H245.332H247.332V14V16ZM247.332 12V10V8H249.332H251.332V10V12H249.332H247.332ZM243.332 12H241.332H239.332V10V8H241.332H243.332V10V12ZM251.332 8V6V4H253.332H255.332V6V8H253.332H251.332ZM239.332 8H237.332H235.332V6V4H237.332H239.332V6V8ZM271.332 24H269.332H267.332H265.332H263.332H261.332V22V20H263.332H265.332H267.332H269.332V18H271.332H273.332V20V22V24H271.332ZM261.332 20H259.332H257.332V18V16V14V12V10H259.332H261.332V8V6H263.332H265.332H267.332H269.332H271.332H273.332V8V10V12V14H271.332H269.332V16H267.332H265.332H263.332H261.332V18V20ZM267.332 12H269.332V10H267.332H265.332H263.332H261.332V12H263.332H265.332H267.332ZM277.332 24H275.332V22V20V18V16V14V12V10V8V6V4V2V0H277.332H279.332V2V4V6V8V10V12V14V16V18V20V22V24H277.332ZM289.332 24H287.332H285.332H283.332H281.332V22V20H283.332H285.332H287.332H289.332H291.332V22V24H289.332ZM291.332 20V18V16H293.332H295.332V18V20H293.332H291.332ZM291.332 16H289.332H287.332H285.332V14V12H287.332H289.332H291.332V14V16ZM285.332 12H283.332H281.332V10V8H283.332H285.332V10V12ZM293.332 8H291.332H289.332H287.332H285.332V6V4H287.332H289.332H291.332H293.332H295.332V6V8H293.332Z" fill="#1A171D"/>
</svg>
