<svg width="64" height="64" viewBox="0 0 64 64" fill="none" xmlns="http://www.w3.org/2000/svg">
<circle cx="34" cy="34" r="30" fill="#1A171D"/>
<circle cx="30" cy="30" r="28" fill="#EA4335" stroke="#1A171D" stroke-width="4"/>
<mask id="path-3-inside-1_415_23" fill="white">
<path fill-rule="evenodd" clip-rule="evenodd" d="M40.7324 22.2444C40.7849 22.2095 40.7923 22.1352 40.7465 22.0919C40.03 21.415 39.0635 21 38 21H22C20.9365 21 19.97 21.415 19.2535 22.0919C19.2077 22.1352 19.2151 22.2095 19.2676 22.2444L28.3359 28.29C29.3436 28.9618 30.6564 28.9618 31.6641 28.29L40.7324 22.2444ZM41.8833 24.0369C41.867 23.9711 41.7904 23.9428 41.7339 23.9805L32.7735 29.9541C31.094 31.0737 28.906 31.0737 27.2265 29.9541L18.2661 23.9805C18.2096 23.9428 18.133 23.9711 18.1167 24.0369C18.0405 24.3454 18 24.668 18 25V36.2C18 38.4091 19.7909 40.2 22 40.2H38C40.2091 40.2 42 38.4091 42 36.2V25C42 24.668 41.9595 24.3454 41.8833 24.0369Z"/>
</mask>
<path fill-rule="evenodd" clip-rule="evenodd" d="M40.7324 22.2444C40.7849 22.2095 40.7923 22.1352 40.7465 22.0919C40.03 21.415 39.0635 21 38 21H22C20.9365 21 19.97 21.415 19.2535 22.0919C19.2077 22.1352 19.2151 22.2095 19.2676 22.2444L28.3359 28.29C29.3436 28.9618 30.6564 28.9618 31.6641 28.29L40.7324 22.2444ZM41.8833 24.0369C41.867 23.9711 41.7904 23.9428 41.7339 23.9805L32.7735 29.9541C31.094 31.0737 28.906 31.0737 27.2265 29.9541L18.2661 23.9805C18.2096 23.9428 18.133 23.9711 18.1167 24.0369C18.0405 24.3454 18 24.668 18 25V36.2C18 38.4091 19.7909 40.2 22 40.2H38C40.2091 40.2 42 38.4091 42 36.2V25C42 24.668 41.9595 24.3454 41.8833 24.0369Z" fill="white"/>
<path d="M28.3359 28.29L27.7812 29.122L27.7812 29.122L28.3359 28.29ZM31.6641 28.29L31.1094 27.4579L31.1094 27.4579L31.6641 28.29ZM32.7735 29.9541L32.2188 29.122L32.2188 29.122L32.7735 29.9541ZM27.2265 29.9541L27.7812 29.122L27.7812 29.122L27.2265 29.9541ZM18.2661 23.9805L18.8208 23.1484L18.2661 23.9805ZM19.2535 22.0919L18.5667 21.3651L19.2535 22.0919ZM41.7339 23.9805L41.1792 23.1484L41.7339 23.9805ZM41.8833 24.0369L42.8541 23.797L41.8833 24.0369ZM40.7465 22.0919L41.4333 21.3651L40.7465 22.0919ZM40.7324 22.2444L40.1777 21.4124L40.7324 22.2444ZM38 22C38.7981 22 39.5215 22.3103 40.0598 22.8188L41.4333 21.3651C40.5385 20.5197 39.3289 20 38 20V22ZM22 22H38V20H22V22ZM19.9402 22.8188C20.4785 22.3103 21.2019 22 22 22V20C20.6711 20 19.4615 20.5197 18.5667 21.3651L19.9402 22.8188ZM18.7129 23.0765L27.7812 29.122L28.8906 27.4579L19.8223 21.4124L18.7129 23.0765ZM27.7812 29.122C29.1248 30.0178 30.8752 30.0178 32.2188 29.122L31.1094 27.4579C30.4376 27.9058 29.5624 27.9058 28.8906 27.4579L27.7812 29.122ZM32.2188 29.122L41.2871 23.0765L40.1777 21.4124L31.1094 27.4579L32.2188 29.122ZM41.1792 23.1484L32.2188 29.122L33.3282 30.7861L42.2886 24.8125L41.1792 23.1484ZM32.2188 29.122C30.8752 30.0178 29.1248 30.0178 27.7812 29.122L26.6718 30.7861C28.6872 32.1297 31.3128 32.1297 33.3282 30.7861L32.2188 29.122ZM27.7812 29.122L18.8208 23.1484L17.7114 24.8125L26.6718 30.7861L27.7812 29.122ZM19 25C19 24.7495 19.0305 24.5075 19.0875 24.2769L17.1459 23.797C17.0504 24.1833 17 24.5865 17 25H19ZM19 36.2V25H17V36.2H19ZM22 39.2C20.3431 39.2 19 37.8569 19 36.2H17C17 38.9614 19.2386 41.2 22 41.2V39.2ZM38 39.2H22V41.2H38V39.2ZM41 36.2C41 37.8569 39.6569 39.2 38 39.2V41.2C40.7614 41.2 43 38.9614 43 36.2H41ZM41 25V36.2H43V25H41ZM40.9125 24.2769C40.9695 24.5075 41 24.7495 41 25H43C43 24.5865 42.9496 24.1833 42.8541 23.797L40.9125 24.2769ZM18.8208 23.1484C18.2103 22.7414 17.3348 23.033 17.1459 23.797L19.0875 24.2769C18.9312 24.9092 18.209 25.1443 17.7114 24.8125L18.8208 23.1484ZM18.5667 21.3651C18.038 21.8646 18.1439 22.6972 18.7129 23.0765L19.8223 21.4124C20.2863 21.7217 20.3774 22.4058 19.9402 22.8188L18.5667 21.3651ZM42.2886 24.8125C41.791 25.1443 41.0688 24.9092 40.9125 24.2769L42.8541 23.797C42.6653 23.033 41.7897 22.7414 41.1792 23.1484L42.2886 24.8125ZM40.0598 22.8188C39.6226 22.4058 39.7137 21.7217 40.1777 21.4124L41.2871 23.0765C41.8561 22.6972 41.962 21.8646 41.4333 21.3651L40.0598 22.8188Z" fill="white" mask="url(#path-3-inside-1_415_23)"/>
</svg>
