<svg width="156" height="38" viewBox="0 0 156 38" fill="none" xmlns="http://www.w3.org/2000/svg">
<path d="M2.5 37.5H0V35V32.5V30V27.5V25V22.5V20V17.5V15V12.5V10V7.5H2.5H5V10V12.5H7.5H10V15V17.5H7.5H5V20V22.5H7.5H10H12.5H15H17.5V25V27.5H15H12.5H10H7.5H5V30V32.5V35V37.5H2.5ZM17.5 22.5V20V17.5V15V12.5H20H22.5V15V17.5V20V22.5H20H17.5ZM17.5 12.5H15H12.5H10V10V7.5H12.5H15H17.5V10V12.5ZM28.3 30H25.8V27.5V25V22.5V20V17.5V15V12.5V10V7.5H28.3H30.8V10V12.5V15V17.5V20V22.5V25V27.5V30H28.3ZM28.3 5H25.8V2.5V0H28.3H30.8V2.5V5H28.3ZM56.6 30H54.1V27.5V25H56.6H59.1V27.5V30H56.6ZM36.6 30H34.1V27.5V25H36.6H39.1V27.5V30H36.6ZM54.1 25H51.6H49.1V22.5V20H51.6H54.1V22.5V25ZM39.1 25V22.5V20H41.6H44.1V22.5V25H41.6H39.1ZM49.1 20H46.6H44.1V17.5V15H46.6H49.1V17.5V20ZM49.1 15V12.5V10H51.6H54.1V12.5V15H51.6H49.1ZM44.1 15H41.6H39.1V12.5V10H41.6H44.1V12.5V15ZM54.1 10V7.5V5H56.6H59.1V7.5V10H56.6H54.1ZM39.1 10H36.6H34.1V7.5V5H36.6H39.1V7.5V10ZM79.9 30H77.4H74.9H72.4H69.9H67.4V27.5V25H69.9H72.4H74.9H77.4V22.5H79.9H82.4V25V27.5V30H79.9ZM67.4 25H64.9H62.4V22.5V20V17.5V15V12.5H64.9H67.4V10V7.5H69.9H72.4H74.9H77.4H79.9H82.4V10V12.5V15V17.5H79.9H77.4V20H74.9H72.4H69.9H67.4V22.5V25ZM74.9 15H77.4V12.5H74.9H72.4H69.9H67.4V15H69.9H72.4H74.9ZM88.2 30H85.7V27.5V25V22.5V20V17.5V15V12.5V10V7.5V5V2.5V0H88.2H90.7V2.5V5V7.5V10V12.5V15V17.5V20V22.5V25V27.5V30H88.2ZM114 30H111.5H109H106.5H104H101.5H99V27.5V25H96.5H94V22.5V20H96.5H99V17.5V15H101.5H104H106.5H109H111.5V12.5H114H116.5V15V17.5V20V22.5V25V27.5V30H114ZM109 25H111.5V22.5V20H109H106.5H104H101.5H99V22.5V25H101.5H104H106.5H109ZM111.5 12.5H109H106.5H104H101.5H99H96.5H94V10V7.5H96.5H99H101.5H104H106.5H109H111.5V10V12.5ZM129.8 30H127.3V27.5V25H129.8H132.3V27.5V30H129.8ZM127.3 25H124.8H122.3V22.5V20V17.5V15V12.5H119.8V10V7.5H122.3V5V2.5H124.8H127.3V5V7.5H129.8V10V12.5H127.3V15V17.5V20V22.5V25ZM153.1 30H150.6H148.1H145.6H143.1H140.6V27.5V25H143.1H145.6H148.1H150.6V22.5H153.1H155.6V25V27.5V30H153.1ZM140.6 25H138.1H135.6V22.5V20V17.5V15V12.5H138.1H140.6V10V7.5H143.1H145.6H148.1H150.6H153.1H155.6V10V12.5V15V17.5H153.1H150.6V20H148.1H145.6H143.1H140.6V22.5V25ZM148.1 15H150.6V12.5H148.1H145.6H143.1H140.6V15H143.1H145.6H148.1Z" fill="#1A171D"/>
</svg>
