<svg width="60" height="60" viewBox="0 0 60 60" fill="none" xmlns="http://www.w3.org/2000/svg">
<path d="M48 0H12C5.37258 0 0 5.37258 0 12V48C0 54.6274 5.37258 60 12 60H48C54.6274 60 60 54.6274 60 48V12C60 5.37258 54.6274 0 48 0Z" fill="#FEDA03"/>
<path d="M41.4011 29.7806C43.2911 29.2895 44.9726 27.8759 44.9726 25.0335C44.9726 20.3015 40.9547 19.2002 35.8059 19.2002H15.3V40.5098H23.9309V33.2777H34.169C35.7464 33.2777 36.669 33.9026 36.669 35.4503V40.5098H45.3001V35.1824C45.3001 32.2806 43.6631 30.4502 41.4011 29.7806ZM34.3178 27.5336H23.9309V25.4502H34.3178C35.4488 25.4502 36.1332 25.599 36.1332 26.492C36.1332 27.3848 35.4488 27.5336 34.3178 27.5336Z" fill="black"/>
</svg>
