<svg width="36" height="36" viewBox="0 0 36 36" fill="none" xmlns="http://www.w3.org/2000/svg">
<path d="M16.8114 26.041C17.5268 26.7564 18.6867 26.7564 19.4021 26.041L31.0606 14.3825C31.776 13.6671 31.776 12.5072 31.0606 11.7918C30.3451 11.0764 29.1852 11.0764 28.4698 11.7918L18.1068 22.1548L7.74371 11.7918C7.02829 11.0764 5.86837 11.0764 5.15295 11.7918C4.43753 12.5072 4.43753 13.6671 5.15295 14.3825L16.8114 26.041ZM8.32031 30.8199C7.30856 30.8199 6.48837 31.6401 6.48837 32.6519C6.48837 33.6636 7.30856 34.4838 8.32031 34.4838V30.8199ZM27.8932 34.4838C28.9049 34.4838 29.7251 33.6636 29.7251 32.6519C29.7251 31.6401 28.9049 30.8199 27.8932 30.8199V34.4838ZM16.2748 1.9668V24.7456H19.9387V1.9668H16.2748ZM8.32031 34.4838H27.8932V30.8199H8.32031V34.4838Z" fill="#1A171D"/>
</svg>
