<svg width="100" height="20" viewBox="0 0 100 20" fill="none" xmlns="http://www.w3.org/2000/svg">
<path d="M36.39 16.18C40.458 16.18 42.042 14.344 42.042 12.274C42.042 10.726 41.25 9.214 38.298 8.782L34.518 8.224C33.87 8.134 33.654 7.954 33.654 7.576C33.654 7.054 34.032 6.82 35.76 6.82C38.028 6.82 38.406 7.108 38.406 7.972V8.242H41.79V8.134C41.79 5.434 39.954 3.76 36.12 3.76C31.764 3.76 30.27 5.776 30.27 7.702C30.27 9.646 31.404 10.852 33.654 11.158L37.434 11.662C38.424 11.788 38.658 11.968 38.658 12.4C38.658 12.94 38.442 13.102 36.39 13.102C34.122 13.102 33.834 12.886 33.834 12.076V11.698H30.45V11.806C30.45 14.866 32.7 16.18 36.39 16.18ZM46.4087 16V11.464H52.0247V16H55.4087V3.94H52.0247V8.422H46.4087V3.94H43.0247V16H46.4087ZM59.7475 16L60.6835 13.768H66.4075L67.3255 16H71.2135L65.9935 3.94H61.1515L55.9495 16H59.7475ZM62.6635 9.034L63.4375 7H63.6715L64.4635 9.034L65.1655 10.726H61.9615L62.6635 9.034ZM75.1398 16V11.896H76.5258C77.8398 11.896 78.1998 12.148 78.6318 13.048L80.0718 16H83.9778L82.4838 12.976C82.0338 12.058 81.6378 11.464 80.3958 11.14V10.96C82.6998 10.672 83.6538 9.538 83.6538 7.63C83.6538 5.272 81.9798 3.94 78.7938 3.94H71.7558V16H75.1398ZM75.1398 6.982H78.7578C79.7478 6.982 80.1078 7.216 80.1078 8.17C80.1078 9.196 79.7478 9.376 78.7578 9.376H75.1398V6.982ZM95.4075 16V12.958H88.0815V11.446H95.1375V8.422H88.0815V6.982H95.4075V3.94H84.6975V16H95.4075Z" fill="white"/>
<path d="M8.28983 18.5C16.1641 18.5 20.4648 12.0676 20.4648 6.50757C20.4648 6.4157 20.4638 6.32384 20.4618 6.23203C21.1217 5.73085 21.7089 5.13741 22.2011 4.47424C22.3836 4.22831 22.3363 3.93034 22.1873 3.74448C22.0409 3.56199 21.7719 3.45399 21.4991 3.55976C21.4476 3.57974 21.3958 3.59919 21.3437 3.6181C21.5349 3.34218 21.6962 3.04413 21.8227 2.72832C21.9278 2.46584 21.8314 2.20131 21.6533 2.05192C21.4791 1.90584 21.2153 1.85785 20.981 1.9848C20.3671 2.31745 19.7027 2.57097 19.0016 2.73144C18.1771 1.96779 17.0655 1.5 15.847 1.5C13.3125 1.5 11.2435 3.52529 11.2435 6.03864C11.2435 6.16453 11.2486 6.28942 11.2587 6.41312C8.29358 6.10534 5.67573 4.65872 3.86439 2.52496C3.60431 2.21859 3.09204 2.23876 2.88232 2.6244C2.5349 3.26322 2.33618 3.99403 2.33618 4.76973C2.33618 5.65964 2.59592 6.49007 3.04387 7.19052C2.70992 7.04708 2.30322 7.27846 2.30322 7.67825C2.30322 9.15816 3.02115 10.4697 4.12855 11.2974C3.87425 11.4223 3.70836 11.7177 3.82926 12.0415C4.31583 13.3447 5.38982 14.3644 6.73201 14.793C5.62005 15.3975 4.34109 15.7416 2.97885 15.7416C2.8075 15.7416 2.63749 15.7363 2.46907 15.7257C2.15701 15.7061 1.93226 15.9146 1.85787 16.1394C1.78212 16.3682 1.84227 16.6817 2.12513 16.8458C3.93367 17.8948 6.03952 18.5 8.28983 18.5Z" fill="white" stroke="white"/>
</svg>
