<svg width="64" height="64" viewBox="0 0 64 64" fill="none" xmlns="http://www.w3.org/2000/svg">
<circle cx="34" cy="34" r="30" fill="#1A171D"/>
<circle cx="30" cy="30" r="28" fill="#0080DE" stroke="#1A171D" stroke-width="4"/>
<path d="M26.5478 41.0049C35.9385 41.0049 41.0577 33.2164 41.0577 26.495C41.0577 26.3643 41.0561 26.2337 41.0528 26.1032C41.8757 25.4752 42.6046 24.7252 43.2092 23.8845C43.5887 23.3568 43.0071 22.7736 42.4953 22.9796C42.3093 23.0544 42.1203 23.1234 41.9286 23.1864C42.2567 22.7655 42.5243 22.2948 42.7177 21.7871C42.9334 21.221 42.3124 20.8061 41.8658 21.0551C41.0952 21.4846 40.2583 21.8093 39.374 22.01C38.3994 21.0756 37.0736 20.5 35.6165 20.5C32.6213 20.5 30.1922 22.9289 30.1922 25.9233C30.1922 26.1182 30.2022 26.311 30.2221 26.5011C26.5809 26.1501 23.3624 24.3558 21.1464 21.6932C20.8856 21.3799 20.3692 21.4031 20.1598 21.789C19.7423 22.5583 19.5034 23.4401 19.5034 24.3765C19.5034 25.5826 19.8972 26.6984 20.5632 27.5998C20.459 27.5535 20.357 27.5034 20.2572 27.4495C19.9122 27.2633 19.4639 27.4997 19.4639 27.9221C19.4639 29.7596 20.3783 31.3842 21.7768 32.3651C21.4199 32.4049 21.1311 32.764 21.274 33.1622C21.8673 34.8151 23.2406 36.0967 24.9509 36.5634C23.5507 37.3884 21.9185 37.8613 20.1746 37.8613C19.9371 37.8613 19.7016 37.8528 19.4687 37.8357C19.1569 37.8129 18.9298 38.0191 18.8534 38.244C18.7758 38.4723 18.8338 38.7842 19.1123 38.9509C21.287 40.2523 23.8286 41.0049 26.5478 41.0049Z" fill="white" stroke="white"/>
</svg>
