<svg width="56" height="56" viewBox="0 0 56 56" fill="none" xmlns="http://www.w3.org/2000/svg">
<path d="M29.9267 4.74501C29.6737 4.50881 29.3733 4.32145 29.0427 4.19362C28.7121 4.06579 28.3578 4 28 4C27.6422 4 27.2879 4.06579 26.9573 4.19362C26.6267 4.32145 26.3263 4.50881 26.0733 4.74501L15.798 14.337C15.2871 14.814 15 15.4609 15 16.1355C15 16.8101 15.2871 17.457 15.798 17.934C16.309 18.411 17.002 18.679 17.7247 18.679C18.4473 18.679 19.1403 18.411 19.6513 17.934L25.2753 12.684L25.2753 37.2065C25.2753 37.8811 25.5624 38.528 26.0734 39.005C26.5843 39.482 27.2774 39.75 28 39.75C28.7226 39.75 29.4157 39.482 29.9266 39.005C30.4376 38.528 30.7247 37.8811 30.7247 37.2065L30.7247 12.684L36.3487 17.934C36.8597 18.411 37.5527 18.679 38.2753 18.679C38.998 18.679 39.691 18.411 40.202 17.934C40.7129 17.457 41 16.8101 41 16.1355C41 15.4609 40.7129 14.814 40.202 14.337L29.9267 4.74501Z" fill="#1A171D"/>
<path d="M51.3103 26.75C50.597 26.75 49.9129 27.0068 49.4085 27.4639C48.9041 27.921 48.6207 28.541 48.6207 29.1875V47.875H7.37931V29.1875C7.37931 28.541 7.09594 27.921 6.59153 27.4639C6.08712 27.0068 5.403 26.75 4.68966 26.75C3.97631 26.75 3.29219 27.0068 2.78778 27.4639C2.28337 27.921 2 28.541 2 29.1875V48.6875C2 49.7649 2.47229 50.7983 3.31297 51.5601C4.15365 52.322 5.29386 52.75 6.48276 52.75H49.5172C50.7061 52.75 51.8464 52.322 52.687 51.5601C53.5277 50.7983 54 49.7649 54 48.6875V29.1875C54 28.541 53.7166 27.921 53.2122 27.4639C52.7078 27.0068 52.0237 26.75 51.3103 26.75Z" fill="#1A171D"/>
</svg>
